<?xml version="1.0" encoding="utf-8" ?>
<svg xmlns="http://www.w3.org/2000/svg" xmlns:xlink="http://www.w3.org/1999/xlink" width="986" height="986">
	<path fill="#ffa620" transform="scale(0.962891 0.962891)" d="M333.476 320.195C336.395 319.908 339.226 319.752 342.155 320.009C349.593 320.661 356.005 323.463 361.704 328.266C370.423 335.615 377.61 344.861 384.969 353.526L415.414 389.31C447.413 426.504 480.291 462.918 511.711 500.616C518.129 494.187 523.983 487.16 529.954 480.317L555.343 451.217L626.303 369.654C638.21 355.895 651.59 334.953 666.808 325.266C675.934 319.457 687.641 321.384 697.575 323.621C691.336 331.842 684.333 339.575 677.512 347.318C671.792 354.445 665.525 361.251 659.524 368.149L626.143 406.597L512.351 537.771C503.774 529.411 496.217 519.847 488.446 510.745L455.906 473.024L384.159 390.089Q354.827 355.25 324.613 321.175C327.569 320.945 330.53 320.535 333.476 320.195Z"/>
	<path fill="#ffa620" transform="scale(0.962891 0.962891)" d="M343.034 460.257C356.53 472.182 367.626 487.321 379.226 501.059C401.809 527.803 424.069 555.038 447.714 580.854C464.647 599.341 483.84 621.975 510.869 622.986C521.904 623.399 533.43 619.948 542.669 613.938C560.095 602.6 573.862 584.109 587.332 568.528Q615.325 536.761 642.997 504.714C654.875 490.861 668.743 472.747 681.95 460.575L682.485 460.087L682.413 652.334L682.371 719.558C682.36 732.175 682.699 744.913 682.124 757.515Q670.304 757.502 658.485 757.354L658.441 587.75L658.447 524.725C650.729 532.753 643.608 541.52 636.151 549.812C624.784 562.449 613.086 574.84 601.977 587.702C589.849 601.742 578.605 617.417 564.044 629.086C547.396 642.428 526.255 649.839 504.855 647.427Q502.266 647.129 499.701 646.671Q497.136 646.213 494.604 645.596Q492.073 644.979 489.584 644.205Q487.096 643.432 484.661 642.505Q482.225 641.579 479.852 640.502Q477.479 639.426 475.177 638.204Q472.876 636.982 470.655 635.619Q468.434 634.256 466.302 632.758C445.546 618.318 429.964 596.532 413.677 577.508C398.33 559.583 382.647 541.848 367.975 523.362C367.135 601.081 367.798 678.878 367.955 756.603L343.024 756.59L343.005 554.899L343.004 492.546C342.978 481.852 342.172 470.904 343.034 460.257Z"/>
	<path fill="#ffa620" transform="scale(0.962891 0.962891)" d="M303.752 335.313C311.437 340.143 332.939 369.499 340.626 378.589L457.542 514.489Q471.644 530.638 485.402 547.081C491.447 554.315 497.49 562.777 504.504 569.035C506.278 570.618 509.024 571.95 511.459 571.656C515.981 571.11 520.36 566.973 523.466 563.857C531.882 555.414 539.439 545.852 547.192 536.789L584.377 493.565L720.466 335.271C726.509 342.238 732.501 349.346 733.85 358.785C735.844 372.747 733.991 387.609 733.966 401.709L733.794 502.243L733.46 669.343L733.404 724.841C733.391 735.695 733.645 746.63 733.132 757.472Q720.788 757.172 708.44 757.139L708.098 431.25L708.03 389.869Q650.889 454.41 594.512 519.618L561.487 557.568C552.877 567.533 544.398 578.184 534.537 586.953C527.856 592.895 519.861 597.74 510.564 597.022C502.47 596.397 495.268 591.898 489.325 586.651C478.564 577.15 469.402 565.393 460.067 554.524L420.281 508.284C385.699 467.796 350.163 428.018 316.04 387.157L316.307 756.472L290.971 756.494L290.623 478.861Q290.794 444.676 290.578 410.492C290.436 394.996 289.112 378.665 291.18 363.296C292.607 352.694 296.807 343.448 303.752 335.313Z"/>
	<path fill="#ffa620" transform="scale(0.962891 0.962891)" d="M335.085 270.2C337.7 269.989 340.372 270.039 342.991 270.144C360.731 270.851 378.056 277.852 392.224 288.383C409.418 301.163 422.506 319.975 436.346 336.129L476.189 382.302C488.185 396.261 500.018 410.359 512.542 423.853C532.303 400.043 553.156 376.996 573.258 353.45C588.455 335.649 602.854 316.818 619.234 300.085C636.992 281.944 658.641 271.198 684.303 271.071C711.218 270.938 736.642 282.507 755.589 301.38C769.218 314.956 779.171 332.032 782.836 350.996C786.354 369.201 785.076 388.649 785.043 407.125L784.984 479.457L784.999 756.521Q772.024 756.459 759.059 756.971L759.056 489.216L759.592 407.807C759.642 394.977 759.94 382.086 759.521 369.264C758.819 347.752 752.22 331.298 736.296 316.521C720.071 301.465 699.69 295.351 677.81 296.216C666.679 296.899 656.508 300.375 647.592 307.098C627.008 322.618 607.699 350.514 590.705 370.564Q551.832 416.093 512.189 460.953C499.19 447.796 487.096 433.336 475.056 419.305L417.52 351.501C407.148 339.303 397.008 326.491 385.776 315.075C373.008 302.098 357.879 294.865 339.483 294.752C319.54 294.629 300.4 303.385 286.401 317.393Q285.395 318.387 284.427 319.419Q283.46 320.451 282.534 321.519Q281.608 322.588 280.724 323.692Q279.841 324.796 279.001 325.934Q278.16 327.072 277.365 328.241Q276.57 329.411 275.821 330.61Q275.072 331.81 274.37 333.038Q273.668 334.265 273.015 335.52Q272.361 336.774 271.757 338.053Q271.153 339.331 270.599 340.633Q270.045 341.934 269.542 343.256Q269.039 344.578 268.589 345.918Q268.138 347.258 267.739 348.615Q267.341 349.972 266.995 351.344Q266.65 352.715 266.358 354.099Q266.067 355.483 265.829 356.877C262.814 374.284 264.208 392.445 264.333 410.029L264.407 479.502L264.451 756.406L239.033 756.377L239.091 478.318L239.061 403.576C239.01 387.297 237.682 370.302 240.336 354.182C243.075 337.538 250.598 322.803 261.354 309.924C279.968 287.635 305.986 272.715 335.085 270.2Z"/>
</svg>
