<?xml version="1.0" encoding="utf-8"?>
<svg xmlns="http://www.w3.org/2000/svg" width="1024" height="1792" viewBox="371.799 343.122 281.349 935.65" xmlns:bx="https://boxy-svg.com" preserveAspectRatio="none"><defs><bx:export><bx:file format="svg"/></bx:export></defs><path fill="#1D0210" d="M474.272 748.951C470.291 745.708 465.08 742.48 464.541 736.939C463.94 730.763 466.675 725.117 467.254 719.076C467.938 711.939 467.429 704.366 467.431 697.171L467.399 540.894C467.423 501.971 467.824 463.076 471.393 424.285C472.415 413.169 473.063 401.571 475.218 390.618C476.343 384.896 478.189 378.041 481.994 373.459C488.143 366.057 498.96 362.878 508.205 362.182C518.543 361.404 530.276 363.406 538.33 370.461C551.79 382.251 552.506 425.482 553.504 443.615C558.251 529.88 556.178 616.415 556.007 702.757C555.985 713.712 559.759 724.411 559.667 735.183C559.643 737.941 559.262 741.101 557.426 743.283C555.484 745.593 552.271 747.123 549.579 748.355C549.572 841.093 549.172 934.321 544.787 1026.96C543.796 1047.89 542.811 1068.91 541.089 1089.79C540.319 1099.11 538.602 1108.49 538.038 1117.78C537.599 1125 542.379 1135.45 540.001 1141.44C537.269 1144.01 534.094 1145.01 530.435 1145.56C529.81 1152.57 529.647 1159.07 531.074 1166.04C533.131 1176.08 543.571 1194.06 539.859 1203.35C536.148 1212.64 526.326 1218.46 521.963 1227.67C517.581 1236.92 516.574 1248.07 511.876 1256.93C507.709 1247.32 506.06 1236.68 501.594 1227.21C495.436 1214.15 477.048 1206.43 483.763 1189.74C486.126 1183.87 489.637 1178.33 491.023 1172.12C493.963 1163.66 492.634 1153.13 491.833 1144.4C489.436 1145.02 487.822 1144.91 485.409 1144.41C483.617 1142.76 483.099 1142.29 482.843 1139.74C482.536 1136.67 483.591 1134.48 485.078 1131.9C485.321 1131.48 485.538 1131.04 485.77 1130.61L486.236 1129.77C482.809 1106.78 481.666 1083.68 480.026 1060.52C475.111 991.084 474.466 921.659 474.477 852.078L474.562 786.184C474.622 773.834 475.483 761.25 474.272 748.951Z"/><path fill="#BAB7B7" d="M536.679 418.146C536.372 411.239 534.01 393.366 536.271 387.883L537.646 387.507C541.254 390.386 541.606 395.591 542.095 399.896C542.717 405.363 542.727 411.046 542.734 416.544C540.529 416.812 538.735 417.309 536.679 418.146Z"/><path fill="#C9A468" d="M484.868 386.585C485.426 387.184 486.628 388.159 486.97 388.844C489.465 393.835 487.595 414.717 487.355 421.324C486.949 432.513 486.236 443.685 485.73 454.869C484.46 452.393 483.77 449.689 482.991 447.029C482.925 426.895 485.602 406.68 484.868 386.585Z"/><path fill="#ACA7A0" d="M536.679 418.146C538.735 417.309 540.529 416.812 542.734 416.544C544.058 427.397 544.594 437.834 544.312 448.754L542.534 448.806L541.983 451.997L541.142 452.081L539.108 448.766C538.551 450.84 538.334 452.967 538.057 455.093C536.533 443.069 537.374 430.308 536.679 418.146Z"/><path fill="#FEFEFE" d="M503.798 378.258C516.255 377.943 526.888 377.674 538.499 382.867C533.878 384.369 529.553 385.268 524.756 385.942C516.546 386.066 497.463 387.695 490.323 383.17L490.855 381.82C495.17 379.51 499.028 378.903 503.798 378.258Z"/><path fill="#FEFEFE" d="M529.839 1129.04C531.972 1129.96 533.61 1131.4 534.77 1133.42C536.211 1135.92 535.992 1137.38 535.249 1139.96C533.731 1141.64 531.856 1143.13 529.535 1143.48C523.467 1144.39 523.676 1137.51 519.996 1135.47C517.136 1133.89 507.025 1134.21 504.349 1136.66C501.995 1138.81 502.703 1140.51 499.253 1141.35C499.094 1141.51 498.942 1141.68 498.777 1141.83C496.894 1143.58 494.12 1144 491.67 1143.87C490.257 1143.28 489.108 1142.72 488.244 1141.4C486.932 1139.39 486.499 1136.62 487.223 1134.32C487.887 1132.21 489.709 1130.79 491.883 1130.51C494.18 1130.21 497.373 1130.94 499.753 1131.11C508.083 1131.71 522.353 1132.92 529.839 1129.04Z"/><defs><linearGradient id="gradient_17" gradientUnits="userSpaceOnUse" x1="517.15698" y1="1074.9698" x2="546.94171" y2="1090.1277"><stop offset="0" stop-color="#9C9F9D"/><stop offset="1" stop-color="#BEB9BB"/></linearGradient></defs><path fill="url(#gradient_17)" d="M533.132 1039.29C533.929 1039.5 534.469 1039.38 535.275 1039.28C537.975 1035.78 535.792 1030.97 538.155 1027.07C538.145 1040.96 535.384 1122.18 530.686 1127.34C530.281 1127.78 529.824 1128.16 529.354 1128.53C527.036 1120.83 532.776 1054.01 533.132 1039.29Z"/><path fill="#FEFEFE" d="M504.327 365.91C512.155 365.458 520.274 365.498 527.777 368.072C533.435 370.014 541.367 374.949 544.021 380.518C543.907 382.511 543.915 382.443 542.513 383.87L541.057 383.526L538.771 378.764C535.063 375.665 530.856 375.47 526.222 375.39C514.51 374.907 500.381 373.112 488.867 375.337C485.809 375.927 484.331 380.173 481.563 380.666C481.212 378.968 481.447 378.334 482.383 376.824C486.826 369.656 496.694 367.686 504.327 365.91Z"/><path fill="#F4DDA8" d="M502.458 714.953C513.812 714.85 537.889 713.219 547.728 714.688C549.647 714.975 551.07 715.878 552.428 717.22C553.042 717.827 552.849 718.498 552.903 719.327C549.333 721.965 496.92 721.007 489.836 720.294C488.116 720.783 485.821 720.842 484.032 720.952C479.986 721.2 475.651 721.284 472.514 718.508C472.705 716.422 472.986 716.261 474.274 714.714L483.765 714.86C489.983 714.863 496.246 714.725 502.458 714.953Z"/><path fill="#C2C5F8" d="M543.296 711.865C541.141 702.123 543.021 670.971 543.096 658.556C543.277 628.588 542.076 598.145 543.578 568.242C543.812 563.591 543.779 556.901 546.037 552.782L546.409 665.924C546.359 677.611 547.802 701.623 544.953 711.839L543.873 712.349L543.296 711.865Z"/><path fill="#797979" d="M482.991 447.029C483.77 449.689 484.46 452.393 485.73 454.869L485.667 631.166C485.566 656.784 486.813 682.858 485.601 708.418C485.487 710.825 485.184 712.827 483.765 714.86L474.274 714.714L475.359 714.059C477.189 710.763 476.084 700.366 476.242 696.186C477.073 701.451 475.507 708.03 478.415 712.711L480.172 713.044C482.655 710.629 482.474 703.701 482.604 700.25C483.197 684.457 482.163 668.386 482.17 652.555L482.027 513.87C482.153 491.616 481.866 469.255 482.991 447.029Z"/><path fill="#FEFEFE" d="M482.302 726.61C492.107 726.17 547.22 724.646 553.055 728.493C554.309 729.319 555.164 731.729 555.352 733.146C555.707 735.836 554.744 738.997 552.957 741.048C550.683 743.657 547.099 743.792 543.888 744.17C529.539 743.531 480.057 746.645 470.344 740.198C468.048 738.675 467.766 737.396 467.267 734.898C467.804 732.679 468.843 731.187 470.344 729.509C473.065 726.468 478.438 726.866 482.302 726.61Z"/><path fill="#BAB7B7" d="M538.057 455.093C538.334 452.967 538.551 450.84 539.108 448.766L541.142 452.081L541.983 451.997L542.534 448.806L544.312 448.754Q546.629 487.526 546.315 526.365C546.287 534.834 547.104 544.454 546.037 552.782C543.779 556.901 543.812 563.591 543.578 568.242C542.076 598.145 543.277 628.588 543.096 658.556C543.021 670.971 541.141 702.123 543.296 711.865L539.171 712.147C536.021 708.932 537.912 664.02 538.007 656.618Q538.58 555.856 538.057 455.093Z"/><path fill="#FEFEFE" d="M476.242 696.186C475.968 660.87 473.282 401.699 484.868 386.585C485.602 406.68 482.925 426.895 482.991 447.029C481.866 469.255 482.153 491.616 482.027 513.87L482.17 652.555C482.163 668.386 483.197 684.457 482.604 700.25C482.474 703.701 482.655 710.629 480.172 713.044L478.415 712.711C475.507 708.03 477.073 701.451 476.242 696.186Z"/><path fill="#797979" d="M533.132 1039.29C532.29 1028.78 534.155 1017.19 534.444 1006.57Q535.264 969.069 535.584 931.561Q535.966 879.106 535.814 826.65C535.617 804.509 534.042 781.674 535.57 759.599C535.818 756.024 536.019 751.069 538.912 748.554L540.35 748.865C544.705 755.324 541.859 805.196 541.855 816.648C541.847 841.358 542.652 866.066 542.512 890.778C542.394 911.49 541.353 932.2 540.962 952.912C540.497 977.599 540.709 1002.5 538.155 1027.07C535.792 1030.97 537.975 1035.78 535.275 1039.28C534.469 1039.38 533.929 1039.5 533.132 1039.29Z"/><path fill="#BAB7B7" d="M480.791 747.03C481.411 747.096 482.029 747.157 482.641 747.276C484.605 747.658 486.344 747.792 487.387 749.729C487.958 750.789 488.228 752.134 488.449 753.308C490.076 761.984 488.021 772.079 487.756 780.928C487.387 793.246 487.523 805.611 487.523 817.934C487.522 883.651 487.238 949.635 489.231 1015.32Q490.496 1055.09 493.605 1094.75C494.141 1101.61 497.673 1121.27 496.285 1126.4C495.42 1127.58 494.862 1127.89 493.574 1128.48L491.966 1127.48C488.201 1120.28 489.074 1101.95 488.419 1093.08Q482.147 1009.28 481.482 925.239C480.936 865.861 482.193 806.382 480.791 747.03Z"/><path fill="#FEFEFE" d="M496.283 1145.24C505.325 1145.92 514.331 1144.71 523.328 1145.22C524.775 1145.31 525.585 1145.26 526.91 1144.68C526.128 1152.28 525.782 1159.71 526.624 1167.33C527.528 1175.5 536.297 1192.41 528.546 1199.03C527.114 1200.25 523.696 1201.86 521.799 1201.84C521.629 1201.83 521.463 1201.79 521.294 1201.77C519.117 1210.73 516.207 1219.28 514.616 1228.42C513.526 1234.68 513.662 1242.03 512.119 1248.03C512.043 1247.83 511.962 1247.63 511.891 1247.42C508.274 1236.9 510.621 1224.98 506.368 1214.25C502.998 1205.76 493.62 1200.11 491.044 1191.88C492.017 1186.2 493.678 1179.83 493.765 1174.11C492.503 1173.7 491.936 1173.03 491.023 1172.12C493.963 1163.66 492.634 1153.13 491.833 1144.4L496.283 1145.24Z"/><path fill="#1C1A1A" d="M491.833 1144.4L496.283 1145.24C496.36 1151.59 497.786 1168.96 493.765 1174.11C492.503 1173.7 491.936 1173.03 491.023 1172.12C493.963 1163.66 492.634 1153.13 491.833 1144.4Z"/><path fill="#1D0210" d="M512.39 1152.95C515.5 1160.5 513.29 1173.22 512.774 1181.43C513.593 1184.22 515.814 1187.81 518.006 1189.7C516.847 1192.84 515.268 1195.63 512.561 1197.66C511.983 1205.57 512.029 1213.6 511.82 1221.54L511.52 1221.9L510.698 1221.27C509.968 1214.72 511.27 1207.66 510.209 1201.31C509.612 1197.74 506.315 1194.27 506.5 1190.63C506.682 1187.05 510.296 1183.86 511.028 1180.17C512.726 1171.6 512.035 1161.72 512.39 1152.95Z"/><path fill="#FEFEFE" d="M514.511 393.363C515.045 392.194 515.591 390.892 516.34 389.837C517.581 388.088 518.624 387.16 520.749 386.828L522.372 388.357C523.512 391.258 523.765 394.424 523.798 397.518C523.952 412.264 522.637 427.275 522.406 442.069C521.516 498.883 519.802 555.573 520.056 612.41C523.478 617.233 526.923 622.523 526.453 628.704C526.191 632.136 524.674 635.246 521.92 637.378C518.564 639.978 513.853 641.022 509.678 640.462C506.301 640.008 502.743 638.49 500.811 635.554C495.814 627.961 504.12 611.522 505.088 602.89C505.819 596.377 505.273 589.497 505.063 582.944L502.158 457.686C501.694 443.346 498.349 400.311 500.323 389.643L502.424 388.382C505.011 387.647 508.336 386.945 510.834 388.289C513.434 389.687 513.457 390.845 514.511 393.363Z"/><path fill="#1D0210" d="M511.249 623.856C513.744 624.517 515.578 624.873 517.249 627.023C517.951 629.682 516.912 631.662 515.979 634.12C512.838 633.779 510.985 633.531 508.799 631.234C508.301 628.429 509.926 626.195 511.249 623.856Z"/><path fill="#C9A468" d="M510.183 584.912C510.656 578.862 512.206 540.512 514.629 537.569C514.929 548.324 516.553 609.188 512.44 614.581C509.396 606.394 510.397 593.782 510.183 584.912Z"/><path fill="#F4DDA8" d="M502.424 388.382C505.011 387.647 508.336 386.945 510.834 388.289C513.434 389.687 513.457 390.845 514.511 393.363C516.192 410.686 515.361 428.607 515.589 446.027Q516.176 479.555 515.085 513.071C514.889 521.167 515.335 529.516 514.629 537.569C512.206 540.512 510.656 578.862 510.183 584.912C506.904 571.67 508.764 547.774 508.608 533.715C508.445 519.094 507.475 393.372 504.977 388.907L502.424 388.382Z"/></svg>